<?xml version="1.0" standalone="no"?>
<!DOCTYPE svg PUBLIC "-//W3C//DTD SVG 20010904//EN"
 "http://www.w3.org/TR/2001/REC-SVG-20010904/DTD/svg10.dtd">
<svg version="1.0" xmlns="http://www.w3.org/2000/svg"
 width="1080.000000pt" height="1080.000000pt" viewBox="0 0 1080.000000 1080.000000"
 preserveAspectRatio="xMidYMid meet">

<g transform="translate(0.000000,1080.000000) scale(0.100000,-0.100000)"
fill="#000000" stroke="none">
<path d="M5355 8875 l-25 -24 0 -228 c0 -262 3 -273 70 -273 67 0 70 10 70
276 l0 233 -26 20 c-35 27 -59 26 -89 -4z"/>
<path d="M4472 8787 c-12 -13 -22 -35 -22 -48 0 -22 206 -403 240 -444 7 -9
29 -15 51 -15 44 0 69 27 69 73 0 29 -201 389 -243 435 -27 29 -68 28 -95 -1z"/>
<path d="M6248 8800 c-9 -6 -44 -61 -79 -123 -34 -61 -85 -152 -114 -202 -28
-49 -54 -98 -58 -108 -12 -32 4 -68 36 -82 53 -22 78 -5 132 93 26 48 79 140
117 204 37 65 71 130 74 145 11 58 -56 103 -108 73z"/>
<path d="M3794 8400 c-28 -11 -54 -48 -54 -78 0 -28 30 -58 219 -218 103 -88
141 -114 163 -114 52 0 96 67 70 107 -12 19 -324 283 -352 297 -16 9 -33 11
-46 6z"/>
<path d="M7364 8313 c-82 -53 -219 -141 -304 -196 -183 -117 -200 -131 -200
-168 0 -33 222 -465 253 -492 13 -12 33 -17 56 -15 32 3 39 9 62 51 38 70 37
70 107 37 l62 -29 0 -1421 0 -1420 -50 0 -50 0 0 1263 c0 1261 0 1264 -20
1282 -30 27 -88 25 -111 -4 -18 -22 -19 -67 -19 -1282 l0 -1259 -252 2 -253 3
-3 443 c-2 441 -2 442 19 460 37 30 99 133 120 201 12 41 22 110 26 179 6 112
7 115 41 155 119 142 136 395 36 540 l-26 39 21 77 c62 231 -12 461 -188 580
l-57 39 -12 89 c-22 162 -101 274 -248 349 -60 30 -87 38 -151 42 -78 5 -78 5
-138 59 -33 30 -89 69 -125 86 -61 30 -72 32 -175 32 -108 0 -111 -1 -190 -40
-53 -26 -99 -58 -135 -95 l-55 -55 -56 57 c-175 179 -458 184 -635 11 -50 -49
-57 -53 -103 -53 -106 0 -240 -66 -321 -157 -63 -72 -95 -150 -115 -284 -4
-29 -14 -42 -44 -62 -61 -41 -145 -132 -174 -190 -61 -120 -74 -299 -31 -425
17 -51 17 -55 0 -80 -9 -15 -29 -52 -44 -82 -25 -51 -27 -65 -27 -180 0 -121
1 -128 32 -190 17 -36 49 -85 70 -109 l37 -44 3 -101 c3 -153 46 -274 129
-366 l34 -38 -2 -443 -3 -444 -252 -3 -253 -2 0 1638 0 1639 -23 21 c-22 21
-33 22 -179 22 l-157 0 -20 -26 -21 -27 0 -1684 0 -1684 25 -24 24 -25 2099 0
2099 0 27 21 26 20 0 1515 c0 1449 -1 1515 -18 1532 -28 28 -265 122 -306 122
-29 0 -39 -5 -48 -25 -6 -14 -14 -25 -17 -25 -3 0 -34 55 -69 121 -48 92 -60
124 -52 134 6 7 69 51 141 97 394 253 404 260 407 300 3 29 -2 43 -22 63 -14
14 -32 25 -39 25 -8 0 -82 -43 -163 -97z m-2218 -447 c63 -29 115 -81 152
-149 l27 -52 3 -607 c2 -517 0 -608 -11 -608 -8 0 -20 7 -28 16 -25 31 -113
67 -174 71 -76 6 -115 -18 -115 -72 0 -41 13 -52 81 -66 83 -17 135 -52 180
-122 67 -104 71 -126 67 -464 -3 -340 -5 -348 -92 -441 -67 -72 -140 -105
-229 -105 -91 0 -148 24 -220 92 -96 91 -128 195 -88 286 11 26 21 57 21 69 0
35 -28 66 -59 66 -59 0 -104 -62 -119 -165 l-8 -50 -52 1 c-72 2 -165 49 -226
114 -54 58 -106 162 -114 226 -5 51 -6 50 83 29 33 -8 86 -15 118 -15 48 0 62
4 82 25 32 31 31 50 -3 85 -21 20 -42 30 -78 34 -146 19 -269 90 -315 183 -31
62 -39 200 -15 256 8 20 20 37 26 37 6 0 32 -18 58 -39 98 -83 237 -123 353
-102 134 23 266 118 322 232 36 70 36 121 1 148 -15 12 -33 21 -41 21 -23 0
-86 37 -115 67 -15 15 -41 58 -58 96 -18 37 -40 72 -50 77 -50 27 -110 -5
-110 -57 1 -43 42 -135 83 -184 21 -24 62 -60 92 -79 30 -19 55 -41 55 -48 0
-7 -20 -32 -43 -56 -80 -80 -213 -99 -322 -46 -67 32 -145 112 -181 185 -26
54 -29 70 -29 160 0 96 2 104 38 177 41 84 116 162 166 173 48 10 58 32 63
127 4 72 10 97 37 152 44 90 141 166 211 166 18 0 20 -4 13 -42 -34 -188 45
-408 146 -408 21 0 45 6 55 13 26 19 23 71 -7 110 -43 56 -59 106 -59 187 0
63 4 86 31 145 36 80 59 107 117 141 83 49 187 52 280 10z m731 8 c81 -27 138
-77 175 -151 55 -113 50 -219 -19 -333 -38 -63 -40 -79 -15 -110 22 -27 71
-30 105 -7 32 21 72 100 92 182 13 53 16 92 11 163 -5 84 -4 92 12 92 34 0
121 -51 162 -96 62 -67 80 -114 80 -211 0 -45 3 -89 6 -98 4 -9 34 -28 68 -44
72 -32 118 -81 157 -166 79 -168 55 -319 -71 -445 -103 -103 -215 -134 -335
-93 -50 17 -135 90 -135 117 0 8 16 24 36 35 74 44 134 104 164 164 52 104 35
177 -40 177 -33 0 -59 -28 -93 -101 -39 -82 -113 -149 -163 -149 -12 0 -33 -9
-48 -21 -57 -45 -19 -155 89 -258 174 -168 396 -174 589 -16 l56 45 17 -27
c26 -39 30 -157 7 -228 -35 -113 -151 -201 -295 -225 -89 -15 -129 -40 -129
-80 0 -48 30 -70 98 -70 31 0 84 7 117 15 85 20 85 20 85 -24 0 -83 -65 -201
-147 -266 -60 -47 -170 -89 -218 -83 -26 3 -29 8 -41 63 -18 92 -37 130 -72
144 -25 10 -36 10 -59 -1 -35 -17 -41 -60 -17 -123 20 -54 16 -133 -11 -189
-31 -64 -112 -140 -178 -164 -83 -32 -187 -30 -253 3 -66 33 -128 96 -162 164
l-27 56 -3 290 c-4 331 2 372 68 474 44 69 100 106 174 117 82 12 121 69 76
114 -26 26 -61 34 -120 27 -51 -6 -137 -45 -159 -71 -8 -9 -20 -16 -27 -16
-12 0 -14 94 -14 578 0 556 1 580 20 638 36 103 104 180 186 209 53 19 143 18
201 -1z m-2377 -1624 l0 -1590 -50 0 -50 0 0 1590 0 1590 50 0 50 0 0 -1590z
m910 -821 c41 -10 89 -19 105 -19 39 0 45 -5 89 -72 59 -90 152 -162 250 -194
28 -9 57 -21 64 -27 9 -7 12 -62 10 -231 l-3 -221 -312 -3 -313 -2 0 401 c0
378 1 401 18 394 9 -4 51 -16 92 -26z m2088 -375 l-3 -389 -312 -3 -313 -2 0
229 0 229 65 22 c119 40 237 137 274 229 14 33 22 36 114 45 32 4 81 15 110
25 29 10 55 15 60 12 4 -4 6 -182 5 -397z m-939 133 c31 -18 80 -42 109 -52
32 -12 52 -25 52 -34 0 -9 1 -110 2 -226 l1 -210 -324 0 -324 0 -3 226 -2 226
42 12 c78 23 174 81 234 140 l58 58 49 -54 c27 -29 75 -68 106 -86z"/>
<path d="M4925 7436 c-29 -29 -24 -58 18 -103 22 -24 31 -44 34 -80 8 -83 -35
-125 -149 -148 -30 -6 -52 -52 -42 -92 6 -24 49 -53 78 -53 34 0 125 42 165
76 81 70 110 183 76 299 -32 111 -120 161 -180 101z"/>
<path d="M4658 6260 c-57 -44 -22 -113 63 -124 85 -12 133 -46 164 -118 21
-52 18 -102 -11 -183 -37 -101 -39 -122 -19 -145 51 -56 130 1 165 119 58 191
-12 363 -179 439 -78 36 -148 41 -183 12z"/>
<path d="M5762 7435 c-72 -60 -98 -209 -55 -306 42 -93 140 -160 236 -163 58
-1 77 18 77 75 0 42 -27 69 -67 69 -39 0 -92 32 -108 66 -29 61 -17 125 32
171 28 27 29 52 2 87 -27 35 -76 35 -117 1z"/>
<path d="M5969 6257 c-88 -37 -125 -71 -164 -151 -42 -85 -53 -167 -35 -258
20 -105 59 -163 116 -174 74 -14 100 36 60 118 -51 104 -51 193 -1 269 26 40
69 64 135 74 59 9 80 29 80 75 0 48 -16 60 -82 66 -41 4 -66 -1 -109 -19z"/>
<path d="M4565 4057 c-244 -63 -369 -292 -310 -570 28 -133 106 -232 234 -295
l75 -37 131 0 c120 1 134 3 189 28 121 56 207 157 241 280 24 90 18 260 -14
340 -43 108 -129 194 -240 237 -69 28 -230 36 -306 17z m260 -176 c55 -30 108
-98 125 -159 18 -65 12 -184 -11 -246 -26 -67 -98 -139 -155 -155 -103 -29
-224 -1 -286 65 -89 96 -103 295 -27 414 72 113 230 149 354 81z"/>
<path d="M7040 4056 c-137 -38 -227 -127 -272 -269 -26 -81 -29 -255 -6 -340
32 -115 108 -206 217 -260 64 -31 69 -32 196 -32 127 0 132 1 197 33 81 40
156 117 181 188 30 84 30 84 -71 84 l-88 0 -22 -45 c-32 -67 -84 -97 -177
-103 -92 -6 -145 12 -198 66 -64 65 -89 181 -67 309 25 153 106 228 244 227
109 -1 175 -43 203 -129 l10 -30 88 3 c49 1 90 4 93 6 8 9 -30 105 -60 151
-68 103 -184 156 -337 154 -47 0 -106 -6 -131 -13z"/>
<path d="M2528 4054 c-5 -4 -8 -205 -8 -446 l0 -438 90 0 89 0 3 153 3 152
150 5 c137 5 154 8 201 32 94 49 134 126 134 257 0 74 -4 95 -26 139 -14 29
-42 65 -62 82 -66 54 -106 62 -347 67 -121 3 -223 2 -227 -3z m381 -153 c28
-6 55 -20 75 -40 27 -27 31 -38 31 -85 0 -64 -22 -101 -76 -128 -26 -14 -59
-18 -136 -18 l-103 0 0 140 0 140 83 0 c45 -1 102 -5 126 -9z"/>
<path d="M3390 3616 l0 -447 86 3 86 3 -1 126 c-1 70 1 138 5 153 6 25 9 26
74 26 l68 0 82 -132 c45 -73 89 -143 96 -155 14 -22 21 -23 119 -23 l105 0
-51 83 c-29 45 -78 120 -109 167 l-58 86 48 26 c85 48 120 114 120 231 0 94
-16 140 -67 197 -75 83 -110 92 -375 98 l-228 5 0 -447z m424 274 c70 -36 92
-130 47 -204 -29 -46 -63 -56 -191 -56 l-107 0 -1 123 c-1 67 1 130 4 141 6
16 16 18 113 14 66 -2 117 -9 135 -18z"/>
<path d="M5637 4053 c-4 -3 -7 -150 -7 -325 0 -342 -3 -368 -51 -402 -33 -23
-100 -21 -132 4 -14 11 -31 37 -37 58 -7 20 -15 40 -19 43 -3 4 -40 -3 -81
-15 -74 -22 -75 -23 -74 -54 4 -70 89 -166 177 -199 48 -17 166 -16 221 3 27
10 67 35 91 58 71 68 75 93 75 493 l0 343 -78 0 c-43 0 -82 -3 -85 -7z"/>
<path d="M6030 3615 l0 -445 280 0 280 0 0 75 0 75 -195 0 -195 0 0 110 0 110
170 0 170 0 0 75 0 75 -170 0 -170 0 0 105 0 105 195 0 195 0 0 80 0 80 -280
0 -280 0 0 -445z"/>
<path d="M7680 3980 l0 -80 125 0 125 0 0 -365 0 -365 85 0 85 0 0 365 0 365
125 0 125 0 0 80 0 80 -335 0 -335 0 0 -80z"/>
<path d="M2520 2430 l0 -440 90 0 90 0 0 298 0 297 21 -35 c12 -19 92 -136
179 -260 86 -124 167 -242 179 -262 l23 -38 84 0 84 0 0 440 0 440 -85 0 -85
0 -2 -290 -3 -291 -194 291 -194 290 -93 0 -94 0 0 -440z"/>
<path d="M3520 2430 l0 -440 85 0 85 0 0 440 0 440 -85 0 -85 0 0 -440z"/>
<path d="M3920 2430 l0 -440 85 0 85 0 0 150 0 151 77 -3 76 -3 91 -147 91
-148 103 0 103 0 -12 23 c-13 22 -67 109 -145 229 -24 37 -44 71 -44 77 0 5 9
13 21 16 33 11 89 65 111 109 16 29 23 65 26 127 5 106 -18 170 -85 229 -73
64 -105 70 -360 70 l-223 0 0 -440z m424 276 c48 -20 66 -51 66 -116 0 -61
-23 -110 -62 -131 -14 -8 -67 -13 -138 -13 l-115 -1 -3 138 -3 137 111 0 c72
0 122 -5 144 -14z"/>
<path d="M4700 2865 c0 -2 9 -28 21 -57 12 -29 61 -165 109 -303 49 -137 110
-310 136 -382 l47 -133 112 0 c98 0 114 2 120 18 16 42 83 225 165 452 48 135
101 282 119 328 l30 82 -92 0 -93 0 -36 -102 c-82 -232 -179 -506 -194 -546
-9 -24 -20 -40 -25 -35 -4 4 -56 152 -114 327 -58 176 -111 328 -116 338 -8
15 -23 18 -99 18 -50 0 -90 -2 -90 -5z"/>
<path d="M5861 2819 c-12 -28 -44 -111 -71 -184 -27 -72 -72 -190 -100 -261
-54 -134 -140 -367 -140 -378 0 -3 42 -6 94 -6 l93 0 32 90 33 90 173 0 173 0
32 -90 32 -90 94 0 c52 0 94 2 94 4 0 5 -95 261 -228 611 l-98 260 -96 3 -95
3 -22 -52z m229 -496 c0 -6 -227 -3 -233 3 -3 3 8 43 25 88 16 44 41 115 55
156 14 41 27 82 30 90 3 11 123 -316 123 -337z"/>
<path d="M6550 2430 l0 -440 85 0 85 0 0 296 0 297 153 -219 c84 -121 175
-254 202 -296 l48 -78 89 0 88 0 0 440 0 440 -85 0 -85 0 0 -292 c0 -248 -2
-290 -14 -278 -11 12 -148 211 -352 512 l-39 58 -87 0 -88 0 0 -440z"/>
<path d="M7708 2668 c-42 -112 -115 -304 -162 -428 -48 -124 -86 -231 -86
-238 0 -10 22 -12 93 -10 l92 3 30 88 30 87 172 0 171 0 33 -90 32 -90 93 0
c52 0 94 2 94 4 0 6 -74 204 -212 571 l-113 300 -95 3 -95 3 -77 -203z m231
-179 c28 -85 51 -158 51 -162 0 -4 -52 -7 -115 -7 -63 0 -115 4 -115 9 0 4 25
79 55 166 30 86 55 160 55 163 0 25 25 -37 69 -169z"/>
</g>
</svg>
